<svg xmlns="http://www.w3.org/2000/svg" version="1.1" xmlns:xlink="http://www.w3.org/1999/xlink" xmlns:svgjs="http://svgjs.com/svgjs" width="1440" height="800" preserveAspectRatio="none" viewBox="0 0 1440 800"><g mask="url(&quot;#SvgjsMask1028&quot;)" fill="none"><rect width="1440" height="800" x="0" y="0" fill="rgba(25, 26, 27, 1)"></rect><path d="M0,376.524C69.337,362.002,136.353,343.155,194.916,303.295C252.331,264.216,292.084,208.673,331.061,151.19C377.418,82.823,439.34,18.665,443.838,-63.814C448.655,-152.147,417.117,-244.506,356.136,-308.593C296.078,-371.71,205.576,-395.615,118.982,-405.216C41.487,-413.808,-28.607,-371.819,-105.644,-359.791C-197.86,-345.393,-302.366,-382.184,-378.079,-327.607C-456.624,-270.989,-501.726,-169.286,-504.205,-72.494C-506.604,21.173,-434.848,95.756,-391.04,178.582C-350.068,256.047,-333.733,358.06,-255.546,397.638C-177.711,437.038,-85.386,394.407,0,376.524" fill="#141516"></path><path d="M1440 1319.676C1535.941 1308.534 1618.975 1257.032 1698.351 1202.002 1775.296 1148.658 1848.0149999999999 1089.0819999999999 1891.908 1006.38 1937.511 920.458 1946.6399999999999 823.765 1950.681 726.575 1955.516 610.285 1982.159 482.981 1917.701 386.07 1851.719 286.86699999999996 1723.137 257.645 1611.357 216.41200000000003 1491.988 172.38 1362.815 88.52599999999995 1245.67 138.173 1127.53 188.24099999999999 1124.429 356.888 1043.997 456.861 967.85 551.509 829.721 592.046 788.564 706.338 744.899 827.594 749.71 974.788 818.168 1083.981 885.06 1190.675 1022.22 1222.216 1139.974 1266.849 1236.892 1303.584 1337.046 1331.633 1440 1319.676" fill="#1e1f20"></path></g><defs><mask id="SvgjsMask1028"><rect width="1440" height="800" fill="#ffffff"></rect></mask></defs></svg>